<mxfile host="app.diagrams.net" agent="Mozilla/5.0 (Windows NT 10.0; Win64; x64) AppleWebKit/537.36 (KHTML, like Gecko) Chrome/131.0.0.0 Safari/537.36" version="25.0.3">
  <diagram name="Page-1" id="iu690pyV_529M19YydIp">
    <mxGraphModel dx="1700" dy="720" grid="1" gridSize="10" guides="1" tooltips="1" connect="1" arrows="1" fold="1" page="1" pageScale="1" pageWidth="850" pageHeight="1100" math="0" shadow="0">
      <root>
        <mxCell id="0" />
        <mxCell id="1" parent="0" />
        <mxCell id="yLs_f888gMEDC6GiK3xh-1" value="Trainee/Student" style="shape=umlActor;verticalLabelPosition=bottom;verticalAlign=top;html=1;" parent="1" vertex="1">
          <mxGeometry x="80" y="220" width="30" height="60" as="geometry" />
        </mxCell>
        <mxCell id="yLs_f888gMEDC6GiK3xh-2" value="Administator" style="shape=umlActor;verticalLabelPosition=bottom;verticalAlign=top;html=1;" parent="1" vertex="1">
          <mxGeometry x="80" y="850" width="30" height="60" as="geometry" />
        </mxCell>
        <mxCell id="yLs_f888gMEDC6GiK3xh-6" value="Login to LMS system" style="ellipse;whiteSpace=wrap;html=1;" parent="1" vertex="1">
          <mxGeometry x="630" y="520" width="110" height="50" as="geometry" />
        </mxCell>
        <mxCell id="yLs_f888gMEDC6GiK3xh-8" value="Trainer" style="shape=umlActor;html=1;verticalLabelPosition=bottom;verticalAlign=top;align=center;" parent="1" vertex="1">
          <mxGeometry x="80" y="550" width="30" height="60" as="geometry" />
        </mxCell>
        <mxCell id="yLs_f888gMEDC6GiK3xh-13" value="Enroll to the OJT course" style="ellipse;whiteSpace=wrap;html=1;" parent="1" vertex="1">
          <mxGeometry x="270" y="90" width="110" height="50" as="geometry" />
        </mxCell>
        <mxCell id="yLs_f888gMEDC6GiK3xh-14" value="View tasks" style="ellipse;whiteSpace=wrap;html=1;" parent="1" vertex="1">
          <mxGeometry x="270" y="170" width="110" height="50" as="geometry" />
        </mxCell>
        <mxCell id="yLs_f888gMEDC6GiK3xh-15" value="Submit training&amp;nbsp;&lt;div&gt;logs&lt;/div&gt;" style="ellipse;whiteSpace=wrap;html=1;" parent="1" vertex="1">
          <mxGeometry x="270" y="250" width="110" height="50" as="geometry" />
        </mxCell>
        <mxCell id="yLs_f888gMEDC6GiK3xh-16" value="Upload&amp;nbsp;&lt;div&gt;medical documents&amp;nbsp;&lt;div&gt;&lt;span style=&quot;background-color: initial;&quot;&gt;for leave&lt;/span&gt;&lt;/div&gt;&lt;/div&gt;" style="ellipse;whiteSpace=wrap;html=1;" parent="1" vertex="1">
          <mxGeometry x="270" y="330" width="110" height="50" as="geometry" />
        </mxCell>
        <mxCell id="yLs_f888gMEDC6GiK3xh-17" value="&lt;div&gt;&lt;div&gt;&lt;span style=&quot;background-color: initial;&quot;&gt;Track progress&lt;/span&gt;&lt;/div&gt;&lt;/div&gt;" style="ellipse;whiteSpace=wrap;html=1;" parent="1" vertex="1">
          <mxGeometry x="270" y="410" width="110" height="50" as="geometry" />
        </mxCell>
        <mxCell id="yLs_f888gMEDC6GiK3xh-18" value="Review submissions" style="ellipse;whiteSpace=wrap;html=1;" parent="1" vertex="1">
          <mxGeometry x="270" y="570" width="110" height="50" as="geometry" />
        </mxCell>
        <mxCell id="yLs_f888gMEDC6GiK3xh-19" value="Provide feedbacks" style="ellipse;whiteSpace=wrap;html=1;" parent="1" vertex="1">
          <mxGeometry x="270" y="650" width="110" height="50" as="geometry" />
        </mxCell>
        <mxCell id="yLs_f888gMEDC6GiK3xh-41" value="Assign tasks" style="ellipse;whiteSpace=wrap;html=1;" parent="1" vertex="1">
          <mxGeometry x="270" y="480" width="110" height="50" as="geometry" />
        </mxCell>
        <mxCell id="yLs_f888gMEDC6GiK3xh-42" value="Approve/Reject medical documents" style="ellipse;whiteSpace=wrap;html=1;" parent="1" vertex="1">
          <mxGeometry x="270" y="730" width="110" height="50" as="geometry" />
        </mxCell>
        <mxCell id="yLs_f888gMEDC6GiK3xh-43" value="Manage Trainees and Trainers" style="ellipse;whiteSpace=wrap;html=1;" parent="1" vertex="1">
          <mxGeometry x="270" y="810" width="110" height="50" as="geometry" />
        </mxCell>
        <mxCell id="yLs_f888gMEDC6GiK3xh-44" value="Generate reports" style="ellipse;whiteSpace=wrap;html=1;" parent="1" vertex="1">
          <mxGeometry x="270" y="890" width="110" height="50" as="geometry" />
        </mxCell>
        <mxCell id="yLs_f888gMEDC6GiK3xh-52" value="" style="edgeStyle=none;html=1;endArrow=none;verticalAlign=bottom;rounded=0;" parent="1" edge="1">
          <mxGeometry width="160" relative="1" as="geometry">
            <mxPoint x="190" y="140" as="sourcePoint" />
            <mxPoint x="270" y="109" as="targetPoint" />
            <Array as="points">
              <mxPoint x="190" y="140" />
              <mxPoint x="190" y="110" />
              <mxPoint x="230" y="110" />
            </Array>
          </mxGeometry>
        </mxCell>
        <mxCell id="yLs_f888gMEDC6GiK3xh-54" value="" style="edgeStyle=none;html=1;endArrow=none;verticalAlign=bottom;rounded=0;entryX=-0.009;entryY=0.409;entryDx=0;entryDy=0;entryPerimeter=0;" parent="1" edge="1">
          <mxGeometry width="160" relative="1" as="geometry">
            <mxPoint x="190" y="300" as="sourcePoint" />
            <mxPoint x="270" y="190" as="targetPoint" />
            <Array as="points">
              <mxPoint x="190" y="140" />
              <mxPoint x="191" y="190" />
            </Array>
          </mxGeometry>
        </mxCell>
        <mxCell id="yLs_f888gMEDC6GiK3xh-55" value="" style="edgeStyle=none;html=1;endArrow=none;verticalAlign=bottom;rounded=0;" parent="1" edge="1">
          <mxGeometry width="160" relative="1" as="geometry">
            <mxPoint x="190" y="260" as="sourcePoint" />
            <mxPoint x="280" y="260" as="targetPoint" />
            <Array as="points">
              <mxPoint x="230" y="260" />
            </Array>
          </mxGeometry>
        </mxCell>
        <mxCell id="yLs_f888gMEDC6GiK3xh-56" value="" style="edgeStyle=none;html=1;endArrow=none;verticalAlign=bottom;rounded=0;entryX=0.093;entryY=0.187;entryDx=0;entryDy=0;entryPerimeter=0;" parent="1" target="yLs_f888gMEDC6GiK3xh-16" edge="1">
          <mxGeometry width="160" relative="1" as="geometry">
            <mxPoint x="190" y="300" as="sourcePoint" />
            <mxPoint x="270" y="369.72" as="targetPoint" />
            <Array as="points">
              <mxPoint x="190" y="340" />
            </Array>
          </mxGeometry>
        </mxCell>
        <mxCell id="yLs_f888gMEDC6GiK3xh-57" value="" style="edgeStyle=none;html=1;endArrow=none;verticalAlign=bottom;rounded=0;entryX=0.093;entryY=0.187;entryDx=0;entryDy=0;entryPerimeter=0;" parent="1" edge="1">
          <mxGeometry width="160" relative="1" as="geometry">
            <mxPoint x="190" y="340" as="sourcePoint" />
            <mxPoint x="280" y="419" as="targetPoint" />
            <Array as="points">
              <mxPoint x="190" y="420" />
            </Array>
          </mxGeometry>
        </mxCell>
        <mxCell id="yLs_f888gMEDC6GiK3xh-58" value="" style="edgeStyle=none;html=1;endArrow=none;verticalAlign=bottom;rounded=0;entryX=0.093;entryY=0.187;entryDx=0;entryDy=0;entryPerimeter=0;" parent="1" edge="1">
          <mxGeometry width="160" relative="1" as="geometry">
            <mxPoint x="190" y="590" as="sourcePoint" />
            <mxPoint x="270" y="669" as="targetPoint" />
            <Array as="points">
              <mxPoint x="190" y="669" />
            </Array>
          </mxGeometry>
        </mxCell>
        <mxCell id="yLs_f888gMEDC6GiK3xh-59" value="" style="edgeStyle=none;html=1;endArrow=none;verticalAlign=bottom;rounded=0;entryX=0.093;entryY=0.187;entryDx=0;entryDy=0;entryPerimeter=0;" parent="1" edge="1">
          <mxGeometry width="160" relative="1" as="geometry">
            <mxPoint x="190" y="510" as="sourcePoint" />
            <mxPoint x="270" y="589" as="targetPoint" />
            <Array as="points">
              <mxPoint x="190" y="589" />
            </Array>
          </mxGeometry>
        </mxCell>
        <mxCell id="yLs_f888gMEDC6GiK3xh-60" value="" style="edgeStyle=none;html=1;endArrow=none;verticalAlign=bottom;rounded=0;entryX=0.033;entryY=0.345;entryDx=0;entryDy=0;entryPerimeter=0;" parent="1" target="yLs_f888gMEDC6GiK3xh-41" edge="1">
          <mxGeometry width="160" relative="1" as="geometry">
            <mxPoint x="190" y="513" as="sourcePoint" />
            <mxPoint x="270" y="497" as="targetPoint" />
            <Array as="points">
              <mxPoint x="190" y="497" />
            </Array>
          </mxGeometry>
        </mxCell>
        <mxCell id="yLs_f888gMEDC6GiK3xh-61" value="" style="edgeStyle=none;html=1;endArrow=none;verticalAlign=bottom;rounded=0;" parent="1" edge="1">
          <mxGeometry width="160" relative="1" as="geometry">
            <mxPoint x="130" y="580" as="sourcePoint" />
            <mxPoint x="190" y="579.9599999999999" as="targetPoint" />
          </mxGeometry>
        </mxCell>
        <mxCell id="yLs_f888gMEDC6GiK3xh-63" value="" style="edgeStyle=none;html=1;endArrow=none;verticalAlign=bottom;rounded=0;entryX=0.006;entryY=0.597;entryDx=0;entryDy=0;entryPerimeter=0;" parent="1" target="yLs_f888gMEDC6GiK3xh-42" edge="1">
          <mxGeometry width="160" relative="1" as="geometry">
            <mxPoint x="190" y="760" as="sourcePoint" />
            <mxPoint x="290" y="730.41" as="targetPoint" />
            <Array as="points" />
          </mxGeometry>
        </mxCell>
        <mxCell id="yLs_f888gMEDC6GiK3xh-64" value="" style="edgeStyle=none;html=1;endArrow=none;verticalAlign=bottom;rounded=0;entryX=0.129;entryY=0.169;entryDx=0;entryDy=0;entryPerimeter=0;" parent="1" target="yLs_f888gMEDC6GiK3xh-43" edge="1">
          <mxGeometry width="160" relative="1" as="geometry">
            <mxPoint x="190" y="760" as="sourcePoint" />
            <mxPoint x="270" y="819" as="targetPoint" />
            <Array as="points">
              <mxPoint x="190" y="819" />
            </Array>
          </mxGeometry>
        </mxCell>
        <mxCell id="yLs_f888gMEDC6GiK3xh-65" value="" style="edgeStyle=none;html=1;endArrow=none;verticalAlign=bottom;rounded=0;entryX=0;entryY=1;entryDx=0;entryDy=0;" parent="1" edge="1" target="yLs_f888gMEDC6GiK3xh-44">
          <mxGeometry width="160" relative="1" as="geometry">
            <mxPoint x="190" y="820" as="sourcePoint" />
            <mxPoint x="284" y="898" as="targetPoint" />
            <Array as="points">
              <mxPoint x="190" y="933" />
            </Array>
          </mxGeometry>
        </mxCell>
        <mxCell id="yLs_f888gMEDC6GiK3xh-67" value="" style="edgeStyle=none;html=1;endArrow=none;verticalAlign=bottom;rounded=0;" parent="1" edge="1">
          <mxGeometry width="160" relative="1" as="geometry">
            <mxPoint x="120" y="880" as="sourcePoint" />
            <mxPoint x="190" y="880.03" as="targetPoint" />
          </mxGeometry>
        </mxCell>
        <mxCell id="yLs_f888gMEDC6GiK3xh-69" value="" style="edgeStyle=none;html=1;endArrow=none;verticalAlign=bottom;rounded=0;entryX=0.094;entryY=0.184;entryDx=0;entryDy=0;entryPerimeter=0;" parent="1" edge="1">
          <mxGeometry width="160" relative="1" as="geometry">
            <mxPoint x="190" y="250" as="sourcePoint" />
            <mxPoint x="129.89999999999998" y="249.51999999999998" as="targetPoint" />
          </mxGeometry>
        </mxCell>
        <mxCell id="yLs_f888gMEDC6GiK3xh-70" value="" style="edgeStyle=none;html=1;endArrow=none;verticalAlign=bottom;rounded=0;entryX=0.1;entryY=0.815;entryDx=0;entryDy=0;entryPerimeter=0;" parent="1" target="yLs_f888gMEDC6GiK3xh-17" edge="1">
          <mxGeometry width="160" relative="1" as="geometry">
            <mxPoint x="190" y="481" as="sourcePoint" />
            <mxPoint x="270" y="450" as="targetPoint" />
            <Array as="points">
              <mxPoint x="190" y="500" />
              <mxPoint x="190" y="481" />
              <mxPoint x="190" y="451" />
            </Array>
          </mxGeometry>
        </mxCell>
        <mxCell id="yLs_f888gMEDC6GiK3xh-77" value="" style="edgeStyle=none;html=1;endArrow=none;verticalAlign=bottom;rounded=0;entryX=0.273;entryY=0;entryDx=0;entryDy=0;entryPerimeter=0;" parent="1" target="yLs_f888gMEDC6GiK3xh-6" edge="1">
          <mxGeometry width="160" relative="1" as="geometry">
            <mxPoint x="190" y="310" as="sourcePoint" />
            <mxPoint x="650" y="510" as="targetPoint" />
            <Array as="points">
              <mxPoint x="476" y="310" />
              <mxPoint x="660" y="310" />
            </Array>
          </mxGeometry>
        </mxCell>
        <mxCell id="yLs_f888gMEDC6GiK3xh-79" value="" style="edgeStyle=none;html=1;endArrow=none;verticalAlign=bottom;rounded=0;entryX=0.63;entryY=1.009;entryDx=0;entryDy=0;entryPerimeter=0;" parent="1" target="yLs_f888gMEDC6GiK3xh-6" edge="1">
          <mxGeometry width="160" relative="1" as="geometry">
            <mxPoint x="190" y="870" as="sourcePoint" />
            <mxPoint x="710" y="570" as="targetPoint" />
            <Array as="points">
              <mxPoint x="476" y="870" />
              <mxPoint x="699" y="870" />
            </Array>
          </mxGeometry>
        </mxCell>
        <mxCell id="yLs_f888gMEDC6GiK3xh-80" value="" style="edgeStyle=none;html=1;endArrow=none;verticalAlign=bottom;rounded=0;entryX=0;entryY=0.5;entryDx=0;entryDy=0;" parent="1" target="yLs_f888gMEDC6GiK3xh-6" edge="1">
          <mxGeometry width="160" relative="1" as="geometry">
            <mxPoint x="190" y="544.73" as="sourcePoint" />
            <mxPoint x="350" y="544.73" as="targetPoint" />
          </mxGeometry>
        </mxCell>
        <mxCell id="yLs_f888gMEDC6GiK3xh-93" value="&amp;lt;&amp;lt;include&amp;gt;&amp;gt;" style="edgeStyle=none;html=1;endArrow=open;verticalAlign=bottom;dashed=1;labelBackgroundColor=none;rounded=0;exitX=1;exitY=0.5;exitDx=0;exitDy=0;entryX=1;entryY=0;entryDx=0;entryDy=0;" parent="1" source="yLs_f888gMEDC6GiK3xh-13" target="yLs_f888gMEDC6GiK3xh-6" edge="1">
          <mxGeometry x="-0.3655" y="5" width="160" relative="1" as="geometry">
            <mxPoint x="360" y="340" as="sourcePoint" />
            <mxPoint x="520" y="340" as="targetPoint" />
            <Array as="points">
              <mxPoint x="554" y="115" />
              <mxPoint x="724" y="115" />
            </Array>
            <mxPoint as="offset" />
          </mxGeometry>
        </mxCell>
        <mxCell id="yLs_f888gMEDC6GiK3xh-94" value="&amp;lt;&amp;lt;include&amp;gt;&amp;gt;" style="edgeStyle=none;html=1;endArrow=open;verticalAlign=bottom;dashed=1;labelBackgroundColor=none;rounded=0;exitX=1;exitY=0.5;exitDx=0;exitDy=0;entryX=0.614;entryY=-0.043;entryDx=0;entryDy=0;entryPerimeter=0;" parent="1" source="yLs_f888gMEDC6GiK3xh-14" target="yLs_f888gMEDC6GiK3xh-6" edge="1">
          <mxGeometry x="-0.2222" y="5" width="160" relative="1" as="geometry">
            <mxPoint x="395" y="194.23000000000002" as="sourcePoint" />
            <mxPoint x="555" y="194.23000000000002" as="targetPoint" />
            <Array as="points">
              <mxPoint x="528" y="195" />
              <mxPoint x="700" y="195" />
            </Array>
            <mxPoint as="offset" />
          </mxGeometry>
        </mxCell>
        <mxCell id="yLs_f888gMEDC6GiK3xh-95" value="&amp;lt;&amp;lt;include&amp;gt;&amp;gt;" style="edgeStyle=none;html=1;endArrow=open;verticalAlign=bottom;dashed=1;labelBackgroundColor=none;rounded=0;exitX=0.99;exitY=0.64;exitDx=0;exitDy=0;entryX=0.431;entryY=-0.015;entryDx=0;entryDy=0;entryPerimeter=0;exitPerimeter=0;" parent="1" source="yLs_f888gMEDC6GiK3xh-15" target="yLs_f888gMEDC6GiK3xh-6" edge="1">
          <mxGeometry x="-0.0619" y="2" width="160" relative="1" as="geometry">
            <mxPoint x="380" y="270" as="sourcePoint" />
            <mxPoint x="528" y="593" as="targetPoint" />
            <Array as="points">
              <mxPoint x="507" y="282" />
              <mxPoint x="677" y="282" />
            </Array>
            <mxPoint as="offset" />
          </mxGeometry>
        </mxCell>
        <mxCell id="yLs_f888gMEDC6GiK3xh-96" value="&amp;lt;&amp;lt;include&amp;gt;&amp;gt;" style="edgeStyle=none;html=1;endArrow=open;verticalAlign=bottom;dashed=1;labelBackgroundColor=none;rounded=0;exitX=0.954;exitY=0.322;exitDx=0;exitDy=0;exitPerimeter=0;entryX=0.195;entryY=0.132;entryDx=0;entryDy=0;entryPerimeter=0;" parent="1" source="yLs_f888gMEDC6GiK3xh-16" target="yLs_f888gMEDC6GiK3xh-6" edge="1">
          <mxGeometry width="160" relative="1" as="geometry">
            <mxPoint x="380" y="390" as="sourcePoint" />
            <mxPoint x="650" y="520" as="targetPoint" />
            <Array as="points">
              <mxPoint x="490" y="346" />
              <mxPoint x="650" y="346" />
            </Array>
          </mxGeometry>
        </mxCell>
        <mxCell id="yLs_f888gMEDC6GiK3xh-97" value="&amp;lt;&amp;lt;include&amp;gt;&amp;gt;" style="edgeStyle=none;html=1;endArrow=open;verticalAlign=bottom;dashed=1;labelBackgroundColor=none;rounded=0;exitX=1;exitY=0.5;exitDx=0;exitDy=0;entryX=0.097;entryY=0.297;entryDx=0;entryDy=0;entryPerimeter=0;" parent="1" source="yLs_f888gMEDC6GiK3xh-17" target="yLs_f888gMEDC6GiK3xh-6" edge="1">
          <mxGeometry width="160" relative="1" as="geometry">
            <mxPoint x="270" y="480" as="sourcePoint" />
            <mxPoint x="430" y="480" as="targetPoint" />
            <Array as="points">
              <mxPoint x="470" y="435" />
              <mxPoint x="640" y="435" />
            </Array>
          </mxGeometry>
        </mxCell>
        <mxCell id="yLs_f888gMEDC6GiK3xh-98" value="&amp;lt;&amp;lt;include&amp;gt;&amp;gt;" style="edgeStyle=none;html=1;endArrow=open;verticalAlign=bottom;dashed=1;labelBackgroundColor=none;rounded=0;exitX=1;exitY=0.5;exitDx=0;exitDy=0;entryX=0.018;entryY=0.354;entryDx=0;entryDy=0;entryPerimeter=0;" parent="1" source="yLs_f888gMEDC6GiK3xh-41" target="yLs_f888gMEDC6GiK3xh-6" edge="1">
          <mxGeometry width="160" relative="1" as="geometry">
            <mxPoint x="240" y="490" as="sourcePoint" />
            <mxPoint x="400" y="490" as="targetPoint" />
            <Array as="points">
              <mxPoint x="460" y="505" />
              <mxPoint x="630" y="505" />
            </Array>
          </mxGeometry>
        </mxCell>
        <mxCell id="yLs_f888gMEDC6GiK3xh-99" value="&amp;lt;&amp;lt;include&amp;gt;&amp;gt;" style="edgeStyle=none;html=1;endArrow=open;verticalAlign=bottom;dashed=1;labelBackgroundColor=none;rounded=0;exitX=0.982;exitY=0.363;exitDx=0;exitDy=0;exitPerimeter=0;entryX=0.082;entryY=0.737;entryDx=0;entryDy=0;entryPerimeter=0;" parent="1" source="yLs_f888gMEDC6GiK3xh-18" target="yLs_f888gMEDC6GiK3xh-6" edge="1">
          <mxGeometry x="-0.3167" y="-21" width="160" relative="1" as="geometry">
            <mxPoint x="240" y="600" as="sourcePoint" />
            <mxPoint x="400" y="600" as="targetPoint" />
            <Array as="points">
              <mxPoint x="469" y="590" />
              <mxPoint x="640" y="590" />
            </Array>
            <mxPoint as="offset" />
          </mxGeometry>
        </mxCell>
        <mxCell id="yLs_f888gMEDC6GiK3xh-100" value="&amp;lt;&amp;lt;include&amp;gt;&amp;gt;" style="edgeStyle=none;html=1;endArrow=open;verticalAlign=bottom;dashed=1;labelBackgroundColor=none;rounded=0;exitX=1;exitY=0.5;exitDx=0;exitDy=0;entryX=0.23;entryY=0.892;entryDx=0;entryDy=0;entryPerimeter=0;" parent="1" source="yLs_f888gMEDC6GiK3xh-19" target="yLs_f888gMEDC6GiK3xh-6" edge="1">
          <mxGeometry x="-0.1697" y="5" width="160" relative="1" as="geometry">
            <mxPoint x="150" y="700" as="sourcePoint" />
            <mxPoint x="310" y="700" as="targetPoint" />
            <Array as="points">
              <mxPoint x="493" y="675" />
              <mxPoint x="655" y="675" />
            </Array>
            <mxPoint as="offset" />
          </mxGeometry>
        </mxCell>
        <mxCell id="yLs_f888gMEDC6GiK3xh-101" value="&amp;lt;&amp;lt;include&amp;gt;&amp;gt;" style="edgeStyle=none;html=1;endArrow=open;verticalAlign=bottom;dashed=1;labelBackgroundColor=none;rounded=0;exitX=1;exitY=0.5;exitDx=0;exitDy=0;entryX=0.403;entryY=0.979;entryDx=0;entryDy=0;entryPerimeter=0;" parent="1" source="yLs_f888gMEDC6GiK3xh-42" target="yLs_f888gMEDC6GiK3xh-6" edge="1">
          <mxGeometry x="-0.1668" y="5" width="160" relative="1" as="geometry">
            <mxPoint x="150" y="780" as="sourcePoint" />
            <mxPoint x="310" y="780" as="targetPoint" />
            <Array as="points">
              <mxPoint x="515" y="755" />
              <mxPoint x="674" y="755" />
            </Array>
            <mxPoint as="offset" />
          </mxGeometry>
        </mxCell>
        <mxCell id="yLs_f888gMEDC6GiK3xh-102" value="&amp;lt;&amp;lt;include&amp;gt;&amp;gt;" style="edgeStyle=none;html=1;endArrow=open;verticalAlign=bottom;dashed=1;labelBackgroundColor=none;rounded=0;exitX=1;exitY=0.5;exitDx=0;exitDy=0;entryX=0.5;entryY=1;entryDx=0;entryDy=0;" parent="1" source="yLs_f888gMEDC6GiK3xh-43" target="yLs_f888gMEDC6GiK3xh-6" edge="1">
          <mxGeometry x="-0.193" y="5" width="160" relative="1" as="geometry">
            <mxPoint x="150" y="780" as="sourcePoint" />
            <mxPoint x="310" y="780" as="targetPoint" />
            <Array as="points">
              <mxPoint x="530" y="835" />
              <mxPoint x="685" y="835" />
            </Array>
            <mxPoint as="offset" />
          </mxGeometry>
        </mxCell>
        <mxCell id="yLs_f888gMEDC6GiK3xh-103" value="&amp;lt;&amp;lt;include&amp;gt;&amp;gt;" style="edgeStyle=none;html=1;endArrow=open;verticalAlign=bottom;dashed=1;labelBackgroundColor=none;rounded=0;exitX=0.958;exitY=0.323;exitDx=0;exitDy=0;exitPerimeter=0;entryX=0.727;entryY=1;entryDx=0;entryDy=0;entryPerimeter=0;" parent="1" source="yLs_f888gMEDC6GiK3xh-44" target="yLs_f888gMEDC6GiK3xh-6" edge="1">
          <mxGeometry x="-0.1512" y="6" width="160" relative="1" as="geometry">
            <mxPoint x="150" y="780" as="sourcePoint" />
            <mxPoint x="310" y="780" as="targetPoint" />
            <Array as="points">
              <mxPoint x="540" y="906" />
              <mxPoint x="710" y="906" />
            </Array>
            <mxPoint as="offset" />
          </mxGeometry>
        </mxCell>
        <mxCell id="yLs_f888gMEDC6GiK3xh-110" value="&amp;lt;&amp;lt;extend&amp;gt;&amp;gt;" style="edgeStyle=none;html=1;startArrow=open;endArrow=none;startSize=12;verticalAlign=bottom;dashed=1;labelBackgroundColor=none;rounded=0;exitX=0;exitY=0.5;exitDx=0;exitDy=0;" parent="1" source="yLs_f888gMEDC6GiK3xh-15" edge="1">
          <mxGeometry width="160" relative="1" as="geometry">
            <mxPoint x="210" y="380" as="sourcePoint" />
            <mxPoint x="280" y="608.89" as="targetPoint" />
            <Array as="points">
              <mxPoint x="220" y="275" />
              <mxPoint x="220" y="440" />
              <mxPoint x="220" y="609" />
            </Array>
          </mxGeometry>
        </mxCell>
        <mxCell id="yLs_f888gMEDC6GiK3xh-111" value="&amp;lt;&amp;lt;extend&amp;gt;&amp;gt;" style="edgeStyle=none;html=1;startArrow=open;endArrow=none;startSize=12;verticalAlign=bottom;dashed=1;labelBackgroundColor=none;rounded=0;entryX=0.119;entryY=0.868;entryDx=0;entryDy=0;entryPerimeter=0;exitX=0.033;exitY=0.722;exitDx=0;exitDy=0;exitPerimeter=0;" parent="1" source="yLs_f888gMEDC6GiK3xh-16" target="yLs_f888gMEDC6GiK3xh-42" edge="1">
          <mxGeometry width="160" relative="1" as="geometry">
            <mxPoint x="280" y="366" as="sourcePoint" />
            <mxPoint x="290" y="699.89" as="targetPoint" />
            <Array as="points">
              <mxPoint x="240" y="366" />
              <mxPoint x="240" y="531" />
              <mxPoint x="240" y="773" />
            </Array>
          </mxGeometry>
        </mxCell>
        <mxCell id="4bI5nwBTzUQpEaS5a9vt-2" value="&amp;lt;&amp;lt;extend&amp;gt;&amp;gt;" style="edgeStyle=none;html=1;startArrow=open;endArrow=none;startSize=12;verticalAlign=bottom;dashed=1;labelBackgroundColor=none;rounded=0;exitX=0.091;exitY=0.8;exitDx=0;exitDy=0;exitPerimeter=0;" edge="1" parent="1" source="yLs_f888gMEDC6GiK3xh-15">
          <mxGeometry width="160" relative="1" as="geometry">
            <mxPoint x="120" y="920" as="sourcePoint" />
            <mxPoint x="270" y="920" as="targetPoint" />
            <Array as="points">
              <mxPoint x="210" y="290" />
              <mxPoint x="210" y="920" />
            </Array>
          </mxGeometry>
        </mxCell>
        <mxCell id="4bI5nwBTzUQpEaS5a9vt-3" value="&amp;lt;&amp;lt;extend&amp;gt;&amp;gt;" style="edgeStyle=none;html=1;startArrow=open;endArrow=none;startSize=12;verticalAlign=bottom;dashed=1;labelBackgroundColor=none;rounded=0;entryX=1;entryY=0.5;entryDx=0;entryDy=0;exitX=0.934;exitY=0.761;exitDx=0;exitDy=0;exitPerimeter=0;" edge="1" parent="1" source="yLs_f888gMEDC6GiK3xh-17" target="yLs_f888gMEDC6GiK3xh-44">
          <mxGeometry x="0.1881" y="10" width="160" relative="1" as="geometry">
            <mxPoint x="280" y="720" as="sourcePoint" />
            <mxPoint x="440" y="720" as="targetPoint" />
            <Array as="points">
              <mxPoint x="420" y="448" />
              <mxPoint x="420" y="915" />
            </Array>
            <mxPoint as="offset" />
          </mxGeometry>
        </mxCell>
        <mxCell id="4bI5nwBTzUQpEaS5a9vt-5" value="" style="rounded=0;whiteSpace=wrap;html=1;fillColor=none;" vertex="1" parent="1">
          <mxGeometry x="160" y="70" width="600" height="960" as="geometry" />
        </mxCell>
        <mxCell id="4bI5nwBTzUQpEaS5a9vt-9" value="Schedule calendar" style="ellipse;whiteSpace=wrap;html=1;" vertex="1" parent="1">
          <mxGeometry x="270" y="960" width="110" height="50" as="geometry" />
        </mxCell>
        <mxCell id="4bI5nwBTzUQpEaS5a9vt-10" value="" style="edgeStyle=none;html=1;endArrow=none;verticalAlign=bottom;rounded=0;entryX=0;entryY=0.393;entryDx=0;entryDy=0;entryPerimeter=0;" edge="1" parent="1" target="4bI5nwBTzUQpEaS5a9vt-9">
          <mxGeometry width="160" relative="1" as="geometry">
            <mxPoint x="190" y="910" as="sourcePoint" />
            <mxPoint x="254" y="1088" as="targetPoint" />
            <Array as="points">
              <mxPoint x="190" y="980" />
            </Array>
          </mxGeometry>
        </mxCell>
        <mxCell id="4bI5nwBTzUQpEaS5a9vt-11" value="&amp;lt;&amp;lt;include&amp;gt;&amp;gt;" style="edgeStyle=none;html=1;endArrow=open;verticalAlign=bottom;dashed=1;labelBackgroundColor=none;rounded=0;exitX=1;exitY=0.5;exitDx=0;exitDy=0;entryX=1;entryY=1;entryDx=0;entryDy=0;" edge="1" parent="1" source="4bI5nwBTzUQpEaS5a9vt-9" target="yLs_f888gMEDC6GiK3xh-6">
          <mxGeometry x="-0.2061" y="6" width="160" relative="1" as="geometry">
            <mxPoint x="390" y="986" as="sourcePoint" />
            <mxPoint x="725" y="650" as="targetPoint" />
            <Array as="points">
              <mxPoint x="555" y="986" />
              <mxPoint x="725" y="986" />
            </Array>
            <mxPoint as="offset" />
          </mxGeometry>
        </mxCell>
        <mxCell id="4bI5nwBTzUQpEaS5a9vt-12" value="&amp;lt;&amp;lt;extend&amp;gt;&amp;gt;" style="edgeStyle=none;html=1;startArrow=open;endArrow=none;startSize=12;verticalAlign=bottom;dashed=1;labelBackgroundColor=none;rounded=0;exitX=0.931;exitY=0.251;exitDx=0;exitDy=0;entryX=0.986;entryY=0.651;entryDx=0;entryDy=0;entryPerimeter=0;exitPerimeter=0;" edge="1" parent="1" source="yLs_f888gMEDC6GiK3xh-17" target="yLs_f888gMEDC6GiK3xh-14">
          <mxGeometry x="-0.5433" y="-10" width="160" relative="1" as="geometry">
            <mxPoint x="445" y="140" as="sourcePoint" />
            <mxPoint x="390" y="440" as="targetPoint" />
            <Array as="points">
              <mxPoint x="420" y="423" />
              <mxPoint x="420" y="203" />
            </Array>
            <mxPoint as="offset" />
          </mxGeometry>
        </mxCell>
        <mxCell id="4bI5nwBTzUQpEaS5a9vt-208" value="&lt;font style=&quot;font-size: 14px;&quot;&gt;Use case diagram&lt;/font&gt;" style="text;html=1;align=center;verticalAlign=middle;resizable=0;points=[];autosize=1;strokeColor=none;fillColor=none;" vertex="1" parent="1">
          <mxGeometry x="70" y="18" width="140" height="30" as="geometry" />
        </mxCell>
      </root>
    </mxGraphModel>
  </diagram>
</mxfile>
